/* XPM */
static char *_083c18a53d3427292b9e39a0010e2e94wZkM3rxOP9LqKRY[] = {
/* columns rows colors chars-per-pixel */
"32 32 2 1 ",
"  c None",
". c #EA2D2D",
/* pixels */
"                                ",
"                                ",
"                                ",
"                                ",
"                                ",
"        .......                 ",
"       ..................       ",
"       ..................       ",
"       ...................      ",
"       ...................      ",
"       ....................     ",
"       ....................     ",
"      .....................     ",
"      .....................     ",
"      .....................     ",
"      .....................     ",
"      .....................     ",
"       ....................     ",
"      .....................     ",
"      ......................    ",
"      ......................    ",
"      ......................    ",
"      ......................    ",
"      .....................     ",
"       ...................      ",
"        .................       ",
"         ..............         ",
"              ......            ",
"               .....            ",
"                                ",
"                                ",
"                                "
};
