/* XPM */
static char *dd6ffb8eff854890bf4ef9d6fa7dd5206CflsF7LiGPyu1q1[] = {
/* columns rows colors chars-per-pixel */
"32 32 3 1 ",
"  c None",
". c black",
"X c #204AEE",
/* pixels */
"                                ",
"                                ",
"          XXXXXXXXXX            ",
"      XXXXXXXXXXXXXXXXX         ",
"     XXXXXX        XXXXX        ",
"    XXXX              XXXX      ",
"    XX                 XXXX     ",
"    XX                  XXX     ",
"    XXXXXX               XXX    ",
"    XXXXXX            XX XXX    ",
"    XXXXXX  XX       X.X  XXX   ",
"       XX XXXX      X..X  XXX   ",
"       XXXXXXX      XXX    XX   ",
"       XXXXXXX XXX  XX     XX   ",
"       XX  XXXXXXX         XX   ",
"           XXXXXXX         XXX  ",
"           XXX XXXX         XX  ",
"               XXXX         XX  ",
"             XXXXX         XXX  ",
"     XXX XXXXXXXXX        XXX   ",
"     XXXXXXXXXXXX         XXX   ",
"    XXXXXXXXXXXX         XXX    ",
"    XXX XXX XX          XXX     ",
"    XXXX               XXXX     ",
"    XXXXXXXX         XXXXX      ",
"      XXXXXXXXXXXXXXXXXXX       ",
"           XXXXXXXXXXXX         ",
"                                ",
"                                ",
"                                ",
"                                ",
"                                "
};
