/* XPM */
static char *fde40df269094a08a03de30ecd4229a3RefGsE0ZRdsKG3ES[] = {
/* columns rows colors chars-per-pixel */
"32 32 2 1 ",
"  c None",
". c black",
/* pixels */
"                                ",
"                                ",
"                                ",
"                                ",
"                                ",
"                                ",
"            ......              ",
"           ..    .....          ",
"          .          ..         ",
"          .           .         ",
"          .   .     . .         ",
"          .           .         ",
"          ..          .         ",
"            ..........          ",
"                .               ",
"                .               ",
"             .........          ",
"           ...  .    ..         ",
"           .    .               ",
"                .               ",
"               ...              ",
"               . ..             ",
"              ..  ..            ",
"              .    .            ",
"              .    .            ",
"             .      .           ",
"             .      ..          ",
"            ..       .          ",
"                                ",
"                                ",
"                                ",
"                                "
};
